<?xml version="1.0" encoding="UTF-8"?>
<svg version="1.1" xmlns="http://www.w3.org/2000/svg" width="500" height="500">
<path d="M0 0 C38.28 0 76.56 0 116 0 C115.67 1.32 115.34 2.64 115 4 C115.99 5.485 115.99 5.485 117 7 C116.34 7.66 115.68 8.32 115 9 C115.99 10.485 115.99 10.485 117 12 C116.34 12.99 115.68 13.98 115 15 C115 18.11257569 115.17361624 20.10765685 116 23 C115.45730469 23.17015625 114.91460937 23.3403125 114.35546875 23.515625 C108.66557093 25.4086373 108.66557093 25.4086373 105 30 C103.37341525 34.87975425 103.32792928 38.54384678 105.5 43.25 C108.7715086 46.84865946 111.3797216 47.61391648 116 49 C115.82597656 49.61617188 115.65195312 50.23234375 115.47265625 50.8671875 C114.93387242 53.29839386 115.29357956 54.6452652 116 57 C116 59 116 59 115.4375 60.875 C114.93841141 63.29914457 115.31797188 64.65079204 116 67 C116 68.66666667 116 70.33333333 116 72 C77.72 72 39.44 72 0 72 C0 48.24 0 24.48 0 0 Z M56.625 18.5 C52.88556483 24.25297718 52.60468003 28.4730747 52.5625 35.25 C52.52962891 36.16652344 52.49675781 37.08304688 52.46289062 38.02734375 C52.41153076 44.57339171 53.70609727 48.98080671 58 54 C63.37642115 58.27919234 67.8962135 59.36978666 74.625 59.28125 C80.95907846 58.53116176 86.05125001 54.87786763 90 50 C92.06189535 45.11656365 92.33552728 40.77126992 92.3125 35.5625 C92.32861328 34.83740234 92.34472656 34.11230469 92.36132812 33.36523438 C92.36710506 26.93550288 90.8973132 22.31893835 86.75 17.25 C81.37029198 12.84842071 76.33434115 11.41945509 69.49609375 11.6484375 C64.13978175 12.40284764 60.31840447 14.61220582 56.625 18.5 Z M12 13 C12 20.59 12 28.18 12 36 C18.3564525 36.2488831 18.3564525 36.2488831 24.71362305 36.47802734 C34.93314352 36.93314352 34.93314352 36.93314352 39 41 C38.9375 44.4375 38.9375 44.4375 38 48 C35.18728969 50.56452999 33.34049454 50.96285514 29.5625 51.375 C25.68100812 50.96642191 23.273801 50.10458636 20 48 C19.505 46.515 19.505 46.515 19 45 C16.36 45 13.72 45 11 45 C11.45396491 49.88012279 12.32118095 52.68009012 16 56 C22.80235271 59.27473857 29.68858331 59.71289479 37 58 C41.65120908 55.50828085 45.3110042 53.0669874 47 48 C47.54138857 43.3405082 47.43067041 39.89446932 45.375 35.625 C41.30289615 31.12425364 36.95020158 29.55094459 31 29 C26.99838789 28.92817619 23.00169266 28.94172292 19 29 C19 26.03 19 23.06 19 20 C27.58 20 36.16 20 45 20 C45 17.69 45 15.38 45 13 C34.11 13 23.22 13 12 13 Z " fill="#BF0314" transform="translate(254,214)"/>
<path d="M0 0 C38.28 0 76.56 0 116 0 C116 23.76 116 47.52 116 72 C77.72 72 39.44 72 0 72 C0.33 70.68 0.66 69.36 1 68 C1 64.70331445 0.65225958 62.17976546 0 59 C0 56 0 56 0.5625 54 C1.22052993 51.80883384 1.22052993 51.80883384 0 49 C1.2375 48.62875 2.475 48.2575 3.75 47.875 C8.13863765 46.20202643 10.01846224 44.3758959 12 40 C12.83186388 35.6587104 12.32419145 32.71592277 10.5 28.6875 C7.22256736 25.16425991 4.57541923 24.37262577 0 23 C0.165 22.4225 0.33 21.845 0.5 21.25 C1.38180914 17.28185886 0.79920208 13.89611012 0 10 C0 7 0 7 0.5625 5 C1.22052993 2.80883384 1.22052993 2.80883384 0 0 Z M69.125 18.875 C63.84430435 26.6407289 63.99033761 35.65748447 65.4296875 44.69921875 C67.29416434 51.47808826 71.43327964 54.87924736 77.3125 58.375 C84.05408595 59.94281069 90.17055358 59.74302189 96.24609375 56.26953125 C100.61628123 53.10625523 103.36830179 49.14448083 105 44 C105.92381586 34.40203947 106.27566374 24.93060378 100 17 C94.50724596 12.40402213 89.57120443 11.63022336 82.59765625 11.72265625 C77.078668 12.31190161 72.81909741 14.78241394 69.125 18.875 Z M25 13 C25 20.59 25 28.18 25 36 C31.31132487 36.20933482 31.31132487 36.20933482 37.62353516 36.38793945 C42.78884341 36.60250805 46.49240609 37.20708882 51 40 C51 42.97 51 45.94 51 49 C45.46276281 50.96110484 41.78283423 51.15656685 36 50 C33 48 33 48 32 45 C29.36 45 26.72 45 24 45 C24.17583347 49.48375352 24.5141231 51.47941761 27.625 54.8125 C33.06083784 58.7470112 39.40400467 59.79302997 46 59 C52.22181217 57.62889695 55.36774293 55.17321461 59 50 C60.73704155 46.5259169 60.46041616 42.79843331 60 39 C57.77961286 34.55922573 55.50461946 32.08750658 51 30 C46.86461565 28.9294927 42.94690477 28.89769248 38.6875 28.9375 C37.43324219 28.94652344 36.17898437 28.95554688 34.88671875 28.96484375 C33.93410156 28.97644531 32.98148438 28.98804688 32 29 C32 26.03 32 23.06 32 20 C40.58 20 49.16 20 58 20 C58 17.69 58 15.38 58 13 C47.11 13 36.22 13 25 13 Z " fill="#010101" transform="translate(130,214)"/>
<path d="M0 0 C3.52278489 1.72815862 5.491806 3.33934779 7.875 6.4375 C9.95107847 13.0117485 9.95107847 19.9882515 7.875 26.5625 C4.48702445 30.96686821 1.56449873 32.75166687 -3.9375 33.625 C-8.22455771 33.41889146 -10.57894033 31.44084093 -13.65234375 28.60546875 C-16.6252921 25.06378245 -16.19799699 21.03658872 -16.25 16.625 C-16.27578125 15.31789062 -16.3015625 14.01078125 -16.328125 12.6640625 C-15.88224446 7.68506318 -14.18110447 5.24859616 -10.8125 1.6875 C-7.16441308 -0.50135215 -4.09964764 -0.78777543 0 0 Z " fill="#BF0314" transform="translate(330,233)"/>
<path d="M0 0 C4.02328387 2.08614719 6.45982663 3.72951929 8 8 C8.2446335 10.83888642 8.3701245 13.53745756 8.375 16.375 C8.39949219 17.1175 8.42398438 17.86 8.44921875 18.625 C8.47708421 23.88228298 7.43560594 26.81305593 4 31 C0.5905957 33.58644464 -2.8386449 33.36503115 -7 33 C-10.18459646 31.48007896 -12.73579966 29.71704041 -15 27 C-16.19667203 23.40998391 -16.20538881 20.4095161 -16.25 16.625 C-16.27578125 15.31789062 -16.3015625 14.01078125 -16.328125 12.6640625 C-15.88224446 7.68506318 -14.18110447 5.24859616 -10.8125 1.6875 C-7.17051045 -0.49769373 -4.09407212 -0.80118828 0 0 Z " fill="#010101" transform="translate(219,233)"/>
<path d="M0 0 C0.66 0.33 1.32 0.66 2 1 C1.51015625 1.77085937 1.0203125 2.54171875 0.515625 3.3359375 C-1.50308001 8.21620889 -1.36536845 12.40457744 -1.25 17.625 C-1.24484375 18.56601563 -1.2396875 19.50703125 -1.234375 20.4765625 C-1.18875604 24.49103098 -1.11080278 28.1210945 0 32 C-2.7710688 29.65408148 -3.52059284 27.85223799 -4.1875 24.3125 C-4.34605469 23.50425781 -4.50460937 22.69601563 -4.66796875 21.86328125 C-4.77753906 21.24839844 -4.88710938 20.63351563 -5 20 C-6.25752285 22.51504571 -6.14261997 24.44277914 -6.25 27.25 C-6.68157414 32.8165749 -7.99198202 35.19752141 -12 39 C-13.32 38.67 -14.64 38.34 -16 38 C-14.47005208 36.79557292 -12.94010417 35.59114583 -11.41015625 34.38671875 C-8.90260554 31.92084478 -8.79720325 29.03056207 -8.6875 25.6875 C-8.73305392 20.09347845 -11.10979174 16.89020826 -15 13 C-13.68 13 -12.36 13 -11 13 C-10.67 12.01 -10.34 11.02 -10 10 C-8.68 11.65 -7.36 13.3 -6 15 C-5.67 13.68 -5.34 12.36 -5 11 C-5.66 10.67 -6.32 10.34 -7 10 C-7.625 7.9375 -7.625 7.9375 -8 6 C-5.32521756 4.3372974 -3.0004856 3.00016187 0 2 C0 1.34 0 0.68 0 0 Z " fill="#AB0C19" transform="translate(309,232)"/>
<path d="M0 0 C0.33 0 0.66 0 1 0 C1 2.31 1 4.62 1 7 C-7.25 7 -15.5 7 -24 7 C-24 8.98 -24 10.96 -24 13 C-23.28972656 12.98839844 -22.57945312 12.97679687 -21.84765625 12.96484375 C-20.92855469 12.95582031 -20.00945312 12.94679687 -19.0625 12.9375 C-18.14597656 12.92589844 -17.22945313 12.91429687 -16.28515625 12.90234375 C-14 13 -14 13 -13 14 C-11.65252916 14.23075082 -10.29622435 14.41153063 -8.9375 14.5625 C-7.638125 14.706875 -6.33875 14.85125 -5 15 C-5 15.66 -5 16.32 -5 17 C-11.93 16.34 -18.86 15.68 -26 15 C-26 12.03 -26 9.06 -26 6 C-17.42 6 -8.84 6 0 6 C0 4.02 0 2.04 0 0 Z " fill="#A4161F" transform="translate(299,228)"/>
<path d="M0 0 C0.66 0.66 1.32 1.32 2 2 C-0.64 2 -3.28 2 -6 2 C-6.2475 2.639375 -6.495 3.27875 -6.75 3.9375 C-8.32987939 6.544301 -9.16780311 6.29195078 -12 7 C-14.17082215 10.27965936 -14.37297624 13.38563574 -14.625 17.25 C-14.69976562 18.32765625 -14.77453125 19.4053125 -14.8515625 20.515625 C-14.90054687 21.33546875 -14.94953125 22.1553125 -15 23 C-14.34 23 -13.68 23 -13 23 C-13 24.65 -13 26.3 -13 28 C-15 27 -15 27 -16 24 C-16.14675735 21.54463658 -16.22100698 19.08457448 -16.25 16.625 C-16.27578125 15.31789062 -16.3015625 14.01078125 -16.328125 12.6640625 C-15.88224446 7.68506318 -14.18110447 5.24859616 -10.8125 1.6875 C-6.88061317 -0.6716321 -4.54198766 -0.44675288 0 0 Z " fill="#A30E1D" transform="translate(330,233)"/>
<path d="M0 0 C0.66 0.66 1.32 1.32 2 2 C1.01 3.485 1.01 3.485 0 5 C-0.16169042 9.0404226 -0.16169042 9.0404226 1 13 C-1.64 13.66 -4.28 14.32 -7 15 C-7.66 14.01 -8.32 13.02 -9 12 C-6.35261084 10.5393715 -5.10551666 10 -2 10 C-2 7.36 -2 4.72 -2 2 C-1.34 2 -0.68 2 0 2 C0 1.34 0 0.68 0 0 Z " fill="#A70C1B" transform="translate(369,224)"/>
<path d="M0 0 C2.64 0 5.28 0 8 0 C8 0.66 8 1.32 8 2 C9.32 2.33 10.64 2.66 12 3 C8.7162062 5.48772258 7.38801417 6.03180444 3.1875 5.6875 C1.6096875 5.3471875 1.6096875 5.3471875 0 5 C0 3.35 0 1.7 0 0 Z " fill="#C40214" transform="translate(282,253)"/>
<path d="M0 0 C2.97 0.99 5.94 1.98 9 3 C8.67 4.32 8.34 5.64 8 7 C8.39938767 9.09821215 8.39938767 9.09821215 9 11 C9 13.19636905 8.67375452 14.911361 8 17 C7.34 17.33 6.68 17.66 6 18 C6.03480469 16.98679687 6.03480469 16.98679687 6.0703125 15.953125 C6.08835937 15.06109375 6.10640625 14.1690625 6.125 13.25 C6.14820313 12.36828125 6.17140625 11.4865625 6.1953125 10.578125 C5.98833448 7.84601513 5.47336314 6.29189821 4 4 C1.9664052 2.73195434 1.9664052 2.73195434 0 2 C0 1.34 0 0.68 0 0 Z " fill="#A3101B" transform="translate(361,260)"/>
<path d="M0 0 C2.31 0 4.62 0 7 0 C7 0.33 7 0.66 7 1 C5.02 1 3.04 1 1 1 C3.21744647 7.39885414 3.21744647 7.39885414 7.9375 12 C10.63239226 12.87996482 13.19674102 13.58775603 16 14 C16 14.33 16 14.66 16 15 C10.4969615 15.28463992 6.66153352 15.3296668 2 12 C0.02573528 7.96173125 -0.21200164 4.45203446 0 0 Z " fill="#A50F1D" transform="translate(264,258)"/>
<path d="M0 0 C-0.33 1.65 -0.66 3.3 -1 5 C-2.98 5.33 -4.96 5.66 -7 6 C-7 5.34 -7 4.68 -7 4 C-9.31 4 -11.62 4 -14 4 C-14 3.34 -14 2.68 -14 2 C-12.04200486 1.66468585 -10.08359226 1.33180857 -8.125 1 C-6.48917969 0.7215625 -6.48917969 0.7215625 -4.8203125 0.4375 C-2 0 -2 0 0 0 Z " fill="#B10A15" transform="translate(336,271)"/>
<path d="M0 0 C0.33 1.32 0.66 2.64 1 4 C-3.39453125 8.00390625 -3.39453125 8.00390625 -5 9 C-5.99 8.67 -6.98 8.34 -8 8 C-7.50628906 7.59007812 -7.01257813 7.18015625 -6.50390625 6.7578125 C-5.86324219 6.21898437 -5.22257812 5.68015625 -4.5625 5.125 C-3.92441406 4.59132813 -3.28632813 4.05765625 -2.62890625 3.5078125 C-0.89194996 2.0777243 -0.89194996 2.0777243 0 0 Z " fill="#A3101E" transform="translate(344,262)"/>
<path d="M0 0 C0.99 0 1.98 0 3 0 C4.6875 2.5 4.6875 2.5 6 5 C5.401875 4.814375 4.80375 4.62875 4.1875 4.4375 C1.83591238 3.77906313 1.83591238 3.77906313 -1 5 C-0.67 3.35 -0.34 1.7 0 0 Z " fill="#B20817" transform="translate(307,264)"/>
<path d="M0 0 C0.99 0 1.98 0 3 0 C3.33 1.98 3.66 3.96 4 6 C2.35 5.67 0.7 5.34 -1 5 C-0.67 3.35 -0.34 1.7 0 0 Z " fill="#CA0211" transform="translate(283,260)"/>
<path d="M0 0 C0.33 0 0.66 0 1 0 C1.18175781 0.90492188 1.18175781 0.90492188 1.3671875 1.828125 C1.53476562 2.62734375 1.70234375 3.4265625 1.875 4.25 C2.03742188 5.03890625 2.19984375 5.8278125 2.3671875 6.640625 C2.99150075 8.96831144 3.84838542 10.89031952 5 13 C3.68 12.67 2.36 12.34 1 12 C-0.3271261 8.0186217 -0.06915913 4.14954773 0 0 Z " fill="#A71023" transform="translate(356,247)"/>
<path d="M0 0 C0.33 0.66 0.66 1.32 1 2 C0.67 2.99 0.34 3.98 0 5 C-0.66 5 -1.32 5 -2 5 C-2.33 6.32 -2.66 7.64 -3 9 C-3.33 7.02 -3.66 5.04 -4 3 C-2.68 2.01 -1.36 1.02 0 0 Z " fill="#B30A17" transform="translate(358,242)"/>
<path d="M0 0 C0.33 0 0.66 0 1 0 C1 2.64 1 5.28 1 8 C0.67 8 0.34 8 0 8 C0 5.36 0 2.72 0 0 Z " fill="#000000" transform="translate(247,247)"/>
</svg>
